PathFileType	4	(X/Y/Z)	Patient4_TMGait_0pt3_03_left_28.trc.trc
DataRate	CameraRate	NumFrames	NumMarkers	Units	OrigDataRate	OrigDataStartFrame	OrigNumFrames
52.434456928839	52.434456928839	7	33	mm	52.434456928839	124	       141
Frame#	Time	Sacral			L.Shoulder			Chest			R.Shoulder			Neck			R.ASIS			L.ASIS			R.Thigh.Superior			R.Thigh.Lateral			R.Thigh.Inferior			R.Patella			L.Thigh.Superior			L.Thigh.Lateral			L.Thigh.Inferior			L.Patella			L.Shank.Superior			L.Shank.Lateral			L.Shank.Inferior			R.Shank.Superior			R.Shank.Lateral			R.Shank.Inferior			R.Heel			R.Midfoot.Superior			R.Midfoot.Lateral			R.Toe			L.Heel			L.Midfoot.Lateral			L.Midfoot.Superior			L.Toe			L.Elbow			L.Wrist			R.Elbow			R.Wrist			
		X1	Y1	Z1	X2	Y2	Z2	X3	Y3	Z3	X4	Y4	Z4	X5	Y5	Z5	X6	Y6	Z6	X7	Y7	Z7	X8	Y8	Z8	X9	Y9	Z9	X10	Y10	Z10	X11	Y11	Z11	X12	Y12	Z12	X13	Y13	Z13	X14	Y14	Z14	X15	Y15	Z15	X16	Y16	Z16	X17	Y17	Z17	X18	Y18	Z18	X19	Y19	Z19	X20	Y20	Z20	X21	Y21	Z21	X22	Y22	Z22	X23	Y23	Z23	X24	Y24	Z24	X25	Y25	Z25	X26	Y26	Z26	X27	Y27	Z27	X28	Y28	Z28	X29	Y29	Z29	X30	Y30	Z30	X31	Y31	Z31	X32	Y32	Z32	X33	Y33	Z33	

124	51.745785714286	673.031187807847	1003.760562979798	604.510305189334	826.010620426647	1423.776445852156	391.319903501465	953.779453670008	1354.641738848978	532.857390507826	905.675963635924	1432.325976829048	717.428151622220	835.928222715304	1487.881933396517	549.006478032169	914.464812880849	929.026770982522	682.729431944446	859.922416361937	955.605000844020	413.713945146907	920.430020329450	719.714377457474	642.675686547082	833.616785916711	616.046485818442	710.254818763651	889.156823458949	559.313496018924	618.972300432739	875.880547488935	469.413535123882	623.890283563730	931.618077787474	761.776705056625	436.240953252448	866.108312587989	637.650446294944	364.080762664278	967.261164097354	573.376569037424	422.137621147286	988.032830525415	509.725254466135	419.884702830663	971.056488385439	438.839559596694	407.408636309032	903.209050713382	311.487004911230	351.264770248040	987.778951361077	208.957780534970	405.021556708275	830.901854873536	385.796272197036	632.686372098368	746.592452944809	293.321247000963	697.455342862072	765.028147507627	196.159634190058	629.531596493607	605.449975389870	43.678470937154	600.333643671690	777.273769513151	95.376768635879	637.167405428035	687.442229924042	36.921451703475	675.954597944140	895.815168346843	41.987150140987	669.038172666440	895.436822407671	36.605168946743	434.642352480961	974.134084505640	37.526427753789	358.633911191890	1049.710136285351	108.479220841648	386.317908152468	1182.151251117032	69.196194889724	366.353857860636	667.967995380769	1107.185018372525	308.851206247672	628.642217223944	849.566316054426	339.596558011547	1066.251974323547	1139.343600383950	843.454748277353	1315.995719782467	1178.913291114423	804.118900614759	
125	51.764857142857	673.477950932214	1003.187753965080	601.465659488837	826.272083185365	1422.154662695526	386.351906988681	954.388734567136	1353.434361776373	527.838384191178	906.701123599480	1431.862750388567	712.155202006842	836.449059772391	1486.898746526479	543.727549085035	914.986766487259	928.177159420076	679.633662095318	859.838524410920	954.293304699738	410.698256380302	919.705548120149	718.581880450243	640.219440083829	832.009272844027	615.598577587722	708.121537547281	886.976178648792	558.159271682642	617.186025623538	872.688523682945	468.363516535374	622.300601962856	931.036853009552	759.826162318282	432.644761239616	863.127913127338	635.664584380601	362.451062480466	964.801227318042	571.631071801195	419.454322832241	984.146819286464	507.733348140339	418.133470992481	967.849828793603	436.736338804446	405.790679209176	899.856291659723	309.278028852889	350.715619707241	984.404333846728	207.194392094717	404.909901891678	827.264619072246	385.128061660037	631.394588794305	742.391783801462	293.425496518257	696.635139069950	760.112700201088	195.906474633637	629.042467810663	599.783266366019	43.818077320618	600.345232385419	771.694921370927	95.416346802682	637.159634079030	681.789207186681	36.957086061367	675.941980376899	890.150536560625	41.851781705889	669.060667374697	891.309609188826	36.220477797725	435.357554749586	969.782809954732	36.846121778321	359.024001679192	1046.147590617345	106.532607097320	387.108325234492	1178.064659226606	65.749600924928	366.678361076118	670.197178113531	1104.050344837649	305.920321476941	634.220492256983	845.880411765825	338.798731762153	1070.064737064448	1140.733861961411	837.673133078483	1318.377466590713	1186.536121500773	796.631241396599	
126	51.783928571429	674.030821246521	1002.669778395686	598.247345515471	826.685109923674	1420.582354913263	381.226680789690	955.124531692321	1352.264168904753	522.685255098345	907.820566166261	1431.429077517652	706.745862024556	837.077915527772	1485.958230529460	538.278528483696	915.587801529878	927.391188766874	676.344625580264	859.908264547027	953.120982372110	407.479711104330	919.203739070076	717.488749871810	637.645690681517	830.637896281735	615.168230809386	705.829233459296	885.102867062333	557.032801410113	615.263604376582	869.894593951228	467.301858154262	620.585166197401	931.131178470705	758.576054113020	429.307440344810	861.609208186957	634.227638240480	360.820412687388	963.717722461974	570.572626087187	416.988987432058	981.629549765817	506.124532881610	416.483292347597	965.714842883990	434.854824512312	404.248119888038	897.003984263862	307.676586727723	349.994141503652	980.791392456912	205.536067046336	404.775874419850	823.884320331289	384.473400261740	629.977373265869	738.383398255907	293.645049498369	695.723779460770	755.341755016920	195.723600870942	628.500899210077	594.163169774592	44.103192054772	600.357870814398	766.214568175370	95.517115088055	637.191252429376	676.186492739792	37.072970030142	675.915402041214	884.526828494047	41.653980961395	669.096285092932	886.004088803155	36.183668945539	436.010217300967	964.191359183527	36.362945556914	359.282401277978	1041.562331145294	104.616622230229	387.733141478713	1172.857044025708	62.063054478919	366.692432683999	673.434852595912	1100.524105732876	302.509826090929	641.212448239031	841.827627653444	337.110162076616	1073.269460149149	1141.721687779048	831.894095500178	1320.298300017417	1192.667329820952	789.336061049624	
127	51.803000000000	674.675019855659	1002.310972916888	594.846837326425	827.218180801242	1419.164197143750	375.991045382667	955.971261808014	1351.228630175648	517.423939645963	909.045859685684	1431.120585280473	701.236148453442	837.801642505543	1485.149832468929	532.715563077528	916.236676198948	926.744603566058	672.870259945790	860.151463033472	952.175491868058	404.053681298660	918.777032280567	716.492067598966	634.981270850290	829.329415277963	614.850598285036	703.432717405775	883.346532468874	556.008082703628	613.259331812046	867.307493937709	466.321031901697	618.815985858108	931.834868388900	758.032301258034	426.273935836759	861.481295796124	633.371392827580	359.116414724311	963.843058718999	570.129602019342	414.747511389858	980.369034790061	504.922407508254	414.951633594266	964.578415715246	433.255111506316	402.816403507055	894.787633821607	306.640375707119	349.036901315994	977.163962637423	204.036665501737	404.631529453621	820.619072092677	383.917562826580	628.497310101861	734.447756186195	294.031395876317	694.752670354458	750.661445244078	195.671760662027	627.938017378730	588.585518820448	44.581948090885	600.373925926174	760.829148394939	95.682039838929	637.253248282206	670.628182224065	37.302309357853	675.878958134904	878.935837677850	41.397184250189	669.142309495215	879.996727735740	36.354254715225	436.521376840056	957.902752560810	36.025691074230	359.402790871444	1036.331235067853	102.858694078223	388.200977301629	1167.007542420557	58.527197827789	366.534622177511	677.451717898530	1096.848877824284	298.626573159860	649.424116612472	837.660390403273	334.438886917118	1075.923107911865	1142.410387591165	826.142362258090	1321.897169376131	1197.323913728872	782.257980373052	
128	51.822071428571	675.395698824586	1002.180668268021	591.232993955186	827.853073015452	1417.975707454619	370.681888383125	956.907356663934	1350.405553302609	512.091064029947	910.350335685797	1431.009500575760	695.665206269477	838.598968175229	1484.540761350484	527.086612854716	916.900298863300	926.294604510921	669.237789916310	860.609261894313	951.505599522184	400.433748392587	918.303291350133	715.642525554684	632.263281835155	827.942622739488	614.726200300671	700.984486430235	881.563001164836	555.150288887648	611.231057300686	864.780939372518	465.496283682474	617.064613824589	933.049328962895	758.105802385980	423.552545316445	862.539023059175	633.044854236963	357.289417561160	964.906170500447	570.158283121101	412.728106126566	980.143582466148	504.084892931585	413.559894490136	964.254484993420	431.942666402125	401.525218820528	893.198410646950	306.083230216747	347.844638141295	973.632488767154	202.722775805037	404.500435818559	817.367699921125	383.532205457171	627.015452912692	730.494514159130	294.629234944727	693.749789161680	746.030065455032	195.803874645658	627.384249624823	583.044159315927	45.312487991325	600.395239520281	755.526025475095	95.907216695015	637.325711536771	665.103426722830	37.683346498349	675.836820844209	873.363452266122	41.086276546032	669.195411769810	873.656729726793	36.617247132041	436.858518980708	951.327799159866	35.798275527254	359.402068511795	1030.735425519146	101.349753683479	388.539211911838	1160.869003596603	55.434927222091	366.313140583564	682.012547318002	1093.250471253681	294.271730462368	658.670423018512	833.613266266936	330.713022995699	1078.077757986461	1142.898329696701	820.427943701246	1323.293380490228	1200.519719560726	775.423836544847	
129	51.841142857143	676.178333286279	1002.312477139567	587.361321971984	828.588221904402	1417.061532401347	365.323661927014	957.908650582396	1349.849565550357	506.731453567949	911.673702587656	1431.142043356365	690.072436732836	839.443511668206	1484.173877601231	521.427690353369	917.546106879806	926.078047723123	665.489986702854	861.331921815079	951.124268408220	396.651367702939	917.706913825294	714.981914553835	629.534697148661	826.391751473850	614.852572493659	698.527143132948	879.679094837438	554.509237165612	609.232001904759	862.238471888230	464.877606271793	615.392899198718	934.644206443259	758.631042487772	421.107069354307	864.464412444201	633.132416300354	355.312878971714	966.565068093526	570.475448318312	410.913726938724	980.648277652671	503.524919660781	412.319345442911	964.474210465101	430.881761253458	400.385308338094	892.103248953967	305.888873493062	346.465414331091	970.208240651079	201.595221708605	404.402604219882	814.085942038677	383.368515713092	625.583288559640	726.477477103621	295.474980129306	692.736345327946	741.425517928054	196.161972171517	626.865938338892	577.532643572451	46.361764697650	600.423574644566	750.288544140143	96.186384897970	637.385621202817	659.597804047236	38.257759406514	675.792876580333	867.790105592141	40.727013918249	669.252125510394	867.235145825520	36.888767388127	437.026308181186	944.736713901910	35.653328703425	359.311166735332	1024.962293769596	100.133506289096	388.783684339497	1154.668586902264	52.952352125058	366.102347479121	686.907128858193	1089.917635720935	289.437952931775	668.784506674938	829.886245353302	325.884997062491	1079.770068009349	1143.269179160329	814.749088213263	1324.572027853476	1202.259187557771	768.866783962490	
130	51.860214285714	677.007627336332	1002.709355249653	583.187570329718	829.438978694253	1416.438263591282	359.929535645565	958.952389083551	1349.590753798905	501.394876043996	912.934539390582	1431.539713383559	684.495068482026	840.308220853932	1484.068876516684	515.762764906906	918.143757060860	926.111786098295	661.678166890586	862.361681537195	951.017670926586	392.751143357570	916.970046398427	714.542066659225	626.837456890524	824.660064367717	615.259643594070	696.087866213549	877.703674810908	554.115261082055	607.303265498634	859.684931986257	464.486241412659	613.845937535232	936.465462071608	759.402109546019	418.857333467454	866.876002530070	633.485840760877	353.177206603080	968.454387241266	570.895695340917	409.265694302151	981.536103708225	503.136625952439	411.217807303770	964.928675551752	430.014265123351	399.380944990116	891.285072346179	305.930966127248	344.970174689028	966.829201777967	200.636761638204	404.344006944870	810.791746357629	383.453547579812	624.236929814353	722.401506849825	296.596319915924	691.725033701558	736.849688168251	196.775848170810	626.402949583109	572.046446033688	47.802118282979	600.461027105580	745.102767914949	96.516327142728	637.416294381353	654.095990662498	39.068333834870	675.750777834995	862.192447819970	40.325955428718	669.309267771118	860.872287353014	37.116632782778	437.053787756627	938.271492675122	35.568855949529	359.165873529828	1019.117097644157	99.209677072803	388.969331818068	1148.523406324118	51.123599385479	365.944561904150	691.979731794968	1086.987188940369	284.110192761312	679.625260579655	826.631957708359	319.936490000179	1081.013410217341	1143.583598623640	809.097989029056	1325.772645930148	1202.534736036586	762.630077074204	
